<?xml version="1.0" encoding="UTF-8"?>
<!DOCTYPE svg PUBLIC "-//W3C//DTD SVG 1.1//EN" "http://www.w3.org/Graphics/SVG/1.1/DTD/svg11.dtd">
<!-- Creator: CorelDRAW X8 -->
<svg xmlns="http://www.w3.org/2000/svg" xml:space="preserve" width="1442px" height="476px" version="1.1" style="shape-rendering:geometricPrecision; text-rendering:geometricPrecision; image-rendering:optimizeQuality; fill-rule:evenodd; clip-rule:evenodd"
viewBox="0 0 1442 476"
 xmlns:xlink="http://www.w3.org/1999/xlink">
 <defs>
  <style type="text/css">
   <![CDATA[
    .fil1 {fill:#ED3237}
    .fil0 {fill:#CA3438}
    .fil3 {fill:#373435;fill-rule:nonzero}
    .fil2 {fill:#F58634;fill-rule:nonzero}
   ]]>
  </style>
 </defs>
 <g id="Camada_x0020_1">
  <metadata id="CorelCorpID_0Corel-Layer"/>
  <g id="_1596652451568">
   <polygon class="fil0" points="0,0 100,0 244,355 145,355 "/>
   <polygon class="fil0" points="290,0 390,0 534,355 435,355 "/>
   <polygon class="fil1" points="389,0 290,0 145,355 245,355 "/>
   <polygon class="fil1" points="680,0 580,0 435,355 535,355 "/>
   <path class="fil2" d="M917 268c0,31 -11,55 -33,73 -20,16 -46,24 -78,24l-72 0c-10,0 -19,-4 -28,-10 -11,-8 -16,-19 -16,-33l0 -279 0 0c0,-13 4,-23 12,-31 8,-7 19,-11 32,-11l60 0c29,0 53,8 73,25 21,17 31,40 31,69 0,39 -20,65 -61,79 53,13 80,44 80,94zm-42 -171c0,-23 -8,-41 -23,-55 -10,-9 -20,-15 -29,-18 -5,-2 -15,-2 -29,-2l-62 0c-14,1 -20,9 -20,21l0 125 64 0 0 0 11 0c24,0 44,-5 61,-17 18,-13 27,-31 27,-54zm19 171c0,-54 -34,-80 -101,-80l-21 0 0 0 -60 0 0 135c0,12 6,20 20,22l69 0c62,0 93,-26 93,-77zm281 -28c0,38 -10,69 -29,93 -21,26 -50,38 -88,38 -39,0 -68,-12 -89,-38 -19,-23 -29,-54 -29,-93l0 -230 22 0 0 221c0,79 32,119 96,119 63,0 95,-40 95,-119l0 -221 22 0 0 230zm267 -230l-111 179 0 176 -21 0 0 -176 -112 -179 23 0 99 159 100 -159 22 0z"/>
   <path class="fil3" d="M182 449l6 -1c0,3 1,5 3,6 1,1 3,2 6,2 3,0 5,-1 7,-2 1,-1 2,-2 2,-4 0,-1 -1,-2 -2,-3 -1,-1 -3,-1 -7,-2 -4,-2 -7,-3 -9,-3 -2,-1 -3,-2 -4,-4 -1,-1 -1,-3 -1,-5 0,-1 0,-3 1,-4 0,-2 1,-3 3,-4 1,-1 2,-1 4,-2 1,0 3,0 5,0 3,0 6,0 8,1 2,1 4,2 5,3 1,2 1,4 2,6l-6 1c-1,-2 -1,-4 -3,-5 -1,-1 -3,-1 -5,-1 -3,0 -5,0 -7,1 -1,1 -1,2 -1,3 0,1 0,2 0,3 1,0 2,1 3,1 0,1 2,1 5,2 5,1 8,2 10,3 1,1 3,2 4,3 1,2 1,3 1,5 0,3 0,4 -2,6 -1,2 -3,4 -5,5 -2,1 -5,1 -8,1 -4,0 -8,-1 -11,-3 -2,-2 -4,-5 -4,-9zm35 -7c0,-7 2,-12 6,-15 3,-3 7,-4 12,-4 5,0 9,1 12,5 3,3 5,7 5,13 0,5 -1,9 -2,12 -2,2 -4,4 -7,6 -2,1 -5,2 -8,2 -6,0 -10,-2 -13,-5 -3,-3 -5,-8 -5,-14zm7 0c0,5 1,8 3,10 2,3 4,4 8,4 3,0 5,-1 7,-4 2,-2 3,-6 3,-10 0,-5 -1,-8 -3,-11 -2,-2 -4,-3 -7,-3 -4,0 -6,1 -8,3 -2,3 -3,6 -3,11zm35 18l0 -51 6 0 0 51 -6 0zm40 0l0 -5c-3,4 -7,6 -12,6 -2,0 -4,0 -6,-1 -2,-1 -3,-2 -4,-3 -1,-2 -1,-3 -2,-5 0,-1 0,-3 0,-6l0 -23 6 0 0 21c0,3 0,5 1,6 0,2 1,3 2,4 1,1 3,2 5,2 2,0 3,-1 5,-2 2,-1 3,-2 3,-4 1,-1 2,-4 2,-7l0 -20 6 0 0 37 -6 0zm40 -13l6 1c-1,4 -3,7 -5,10 -3,2 -6,3 -10,3 -6,0 -10,-2 -13,-5 -3,-3 -4,-8 -4,-14 0,-4 0,-7 2,-10 1,-3 3,-6 6,-7 2,-2 5,-2 9,-2 4,0 7,1 9,3 3,2 5,5 5,8l-6 1c0,-2 -1,-4 -3,-5 -1,-2 -3,-2 -5,-2 -3,0 -6,1 -8,3 -2,2 -3,6 -3,11 0,5 1,8 3,11 2,2 4,3 7,3 3,0 5,-1 7,-2 1,-2 2,-4 3,-7zm-15 19l2 -6 5 0 -2 4c2,0 4,1 5,2 1,1 1,2 1,3 0,2 0,3 -2,5 -2,1 -4,2 -8,2 -2,0 -3,0 -5,0l1 -5c1,0 2,0 3,0 2,0 4,0 5,-1 0,0 1,-1 1,-1 0,-1 -1,-1 -1,-1 0,-1 -1,-1 -1,-1 -1,0 -2,-1 -4,-1zm50 -10c-2,2 -4,3 -6,4 -3,1 -5,1 -7,1 -4,0 -7,-1 -10,-3 -2,-2 -3,-4 -3,-7 0,-2 0,-4 1,-5 1,-2 2,-3 4,-4 1,-1 2,-2 4,-2 1,0 3,-1 6,-1 5,-1 8,-1 11,-2 0,-1 0,-2 0,-2 0,-2 -1,-4 -2,-5 -2,-2 -4,-2 -7,-2 -3,0 -5,0 -7,1 -1,1 -2,3 -3,6l-6 -1c1,-3 2,-5 3,-6 1,-2 3,-3 5,-4 3,-1 6,-1 9,-1 3,0 6,0 8,1 2,0 3,1 4,2 1,2 1,3 2,5 0,1 0,3 0,6l0 8c0,6 0,9 1,11 0,1 0,3 1,4l-6 0c-1,-1 -1,-3 -2,-4zm0 -14c-2,1 -6,2 -10,2 -3,1 -5,1 -6,1 -1,1 -2,2 -2,2 -1,1 -1,2 -1,3 0,2 0,3 2,5 1,1 3,1 5,1 3,0 5,0 7,-1 2,-1 3,-3 4,-5 0,-1 1,-3 1,-6l0 -2zm-21 -23c0,-3 1,-4 2,-6 2,-1 3,-2 6,-2 1,0 3,1 5,2 2,1 3,1 4,1 0,0 1,0 1,-1 1,0 1,-1 1,-2l5 0c0,3 -1,5 -2,6 -2,1 -3,2 -5,2 -2,0 -3,-1 -6,-2 -1,-1 -3,-1 -3,-1 -1,0 -2,0 -2,0 -1,1 -1,2 -1,3l-5 0zm34 23c0,-7 2,-12 6,-15 3,-3 7,-4 12,-4 5,0 9,1 12,5 3,3 5,7 5,13 0,5 -1,9 -2,12 -2,2 -4,4 -6,6 -3,1 -6,2 -9,2 -5,0 -10,-2 -13,-5 -3,-3 -5,-8 -5,-14zm7 0c0,5 1,8 3,10 2,3 5,4 8,4 3,0 5,-1 8,-4 2,-2 3,-6 3,-10 0,-5 -1,-8 -3,-11 -3,-2 -5,-3 -8,-3 -3,0 -6,1 -8,3 -2,3 -3,6 -3,11zm55 -26l0 -7 6 0 0 7 -6 0zm0 44l0 -37 6 0 0 37 -6 0zm16 0l0 -37 6 0 0 6c2,-4 6,-6 11,-6 3,0 5,0 6,1 2,1 4,2 5,3 1,1 1,3 2,5 0,1 0,3 0,6l0 22 -6 0 0 -22c0,-3 -1,-5 -1,-6 0,-1 -1,-2 -3,-3 -1,-1 -2,-1 -4,-1 -3,0 -5,1 -7,3 -2,1 -3,4 -3,9l0 20 -6 0zm53 -5l1 5c-2,1 -3,1 -5,1 -2,0 -4,-1 -5,-1 -1,-1 -2,-2 -3,-3 0,-1 0,-4 0,-8l0 -21 -5 0 0 -5 5 0 0 -9 6 -4 0 13 6 0 0 5 -6 0 0 22c0,2 0,3 0,3 0,1 1,1 1,2 1,0 2,0 2,0 1,0 2,0 3,0zm32 -7l6 1c-1,4 -3,7 -6,9 -2,2 -6,3 -10,3 -6,0 -10,-2 -13,-5 -3,-3 -5,-8 -5,-14 0,-6 2,-11 5,-14 3,-4 7,-5 13,-5 4,0 8,1 12,5 3,3 4,8 4,14 0,0 0,1 0,1l-27 0c0,4 1,8 3,10 2,2 5,3 8,3 2,0 4,-1 6,-2 1,-1 3,-3 4,-6zm-21 -10l21 0c-1,-3 -1,-5 -3,-7 -2,-2 -4,-3 -7,-3 -3,0 -6,1 -8,3 -2,2 -3,4 -3,7zm35 22l0 -51 6 0 0 51 -6 0zm16 -44l0 -7 6 0 0 7 -6 0zm0 44l0 -37 6 0 0 37 -6 0zm14 3l7 1c0,2 0,3 2,4 1,1 3,2 6,2 3,0 5,-1 7,-2 1,-1 2,-2 3,-5 0,-1 0,-3 0,-8 -2,4 -6,5 -10,5 -5,0 -9,-2 -12,-5 -2,-4 -4,-8 -4,-13 0,-4 1,-7 2,-10 1,-3 3,-5 6,-7 2,-2 5,-2 8,-2 5,0 8,1 11,5l0 -5 6 0 0 32c0,6 -1,10 -2,12 -1,3 -3,5 -6,6 -2,2 -5,2 -9,2 -4,0 -8,-1 -11,-3 -2,-2 -4,-5 -4,-9zm6 -22c0,5 1,9 2,11 2,2 5,3 8,3 3,0 5,-1 7,-3 2,-2 3,-6 3,-11 0,-4 -1,-8 -3,-10 -2,-2 -5,-3 -7,-3 -3,0 -6,1 -7,3 -2,2 -3,6 -3,10zm60 7l7 1c-1,4 -3,7 -6,9 -3,2 -6,3 -10,3 -6,0 -10,-2 -13,-5 -3,-3 -5,-8 -5,-14 0,-6 2,-11 5,-14 3,-4 7,-5 12,-5 5,0 9,1 12,5 4,3 5,8 5,14 0,0 0,1 0,1l-27 0c0,4 1,8 3,10 2,2 5,3 8,3 2,0 4,-1 6,-2 1,-1 2,-3 3,-6zm-20 -10l20 0c0,-3 -1,-5 -2,-7 -2,-2 -4,-3 -8,-3 -2,0 -5,1 -7,3 -2,2 -3,4 -3,7zm35 22l0 -37 5 0 0 6c3,-4 7,-6 12,-6 2,0 4,0 6,1 2,1 4,2 5,3 0,1 1,3 1,5 1,1 1,3 1,6l0 22 -6 0 0 -22c0,-3 -1,-5 -1,-6 -1,-1 -2,-2 -3,-3 -1,-1 -2,-1 -4,-1 -3,0 -5,1 -7,3 -2,1 -3,4 -3,9l0 20 -6 0zm53 -5l1 5c-2,1 -3,1 -5,1 -2,0 -4,-1 -5,-1 -1,-1 -2,-2 -3,-3 0,-1 -1,-4 -1,-8l0 -21 -4 0 0 -5 4 0 0 -9 7 -4 0 13 6 0 0 5 -6 0 0 22c0,2 0,3 0,3 0,1 1,1 1,2 1,0 1,0 2,0 1,0 2,0 3,0zm31 -7l7 1c-1,4 -3,7 -6,9 -3,2 -6,3 -10,3 -6,0 -10,-2 -13,-5 -3,-3 -5,-8 -5,-14 0,-6 2,-11 5,-14 3,-4 7,-5 12,-5 5,0 9,1 12,5 4,3 5,8 5,14 0,0 0,1 0,1l-27 0c0,4 1,8 3,10 2,2 5,3 8,3 2,0 4,-1 6,-2 1,-1 2,-3 3,-6zm-20 -10l20 0c0,-3 -1,-5 -2,-7 -2,-2 -4,-3 -8,-3 -2,0 -5,1 -7,3 -2,2 -3,4 -3,7zm80 10l6 1c-1,4 -3,7 -5,9 -3,2 -7,3 -11,3 -5,0 -10,-2 -13,-5 -3,-3 -4,-8 -4,-14 0,-6 1,-11 4,-14 3,-4 8,-5 13,-5 5,0 9,1 12,5 3,3 4,8 4,14 0,0 0,1 0,1l-27 0c0,4 1,8 3,10 2,2 5,3 8,3 2,0 4,-1 6,-2 2,-1 3,-3 4,-6zm-21 -10l21 0c0,-3 -1,-5 -3,-7 -1,-2 -4,-3 -7,-3 -3,0 -6,1 -7,3 -2,2 -4,4 -4,7zm35 22l0 -37 6 0 0 6c1,-2 2,-4 4,-5 2,-1 5,-1 7,-1 3,0 5,0 7,1 1,1 3,3 3,5 3,-4 7,-6 12,-6 4,0 6,1 8,3 2,2 3,5 3,9l0 25 -6 0 0 -23c0,-2 0,-4 -1,-5 0,-1 -1,-2 -2,-3 -1,-1 -2,-1 -4,-1 -2,0 -4,1 -6,3 -2,1 -3,4 -3,8l0 21 -6 0 0 -24c0,-2 0,-5 -1,-6 -1,-1 -3,-2 -5,-2 -2,0 -4,0 -5,1 -2,1 -3,3 -4,4 0,2 -1,5 -1,8l0 19 -6 0zm104 -12l7 1c-1,4 -3,7 -6,9 -2,2 -6,3 -10,3 -6,0 -10,-2 -13,-5 -3,-3 -5,-8 -5,-14 0,-6 2,-11 5,-14 3,-4 7,-5 12,-5 5,0 9,1 12,5 4,3 5,8 5,14 0,0 0,1 0,1l-27 0c0,4 1,8 3,10 2,2 5,3 8,3 2,0 4,-1 6,-2 1,-1 3,-3 3,-6zm-20 -10l21 0c-1,-3 -2,-5 -3,-7 -2,-2 -4,-3 -8,-3 -2,0 -5,1 -7,3 -2,2 -3,4 -3,7zm32 7l0 -6 20 0 0 6 -20 0zm51 2l6 1c-1,4 -3,7 -5,10 -3,2 -6,3 -11,3 -5,0 -9,-2 -12,-5 -3,-3 -4,-8 -4,-14 0,-4 0,-7 2,-10 1,-3 3,-6 6,-7 2,-2 5,-2 9,-2 4,0 7,1 9,3 3,2 5,5 5,8l-6 1c0,-2 -1,-4 -3,-5 -1,-2 -3,-2 -5,-2 -3,0 -6,1 -8,3 -2,2 -3,6 -3,11 0,5 1,8 3,11 2,2 4,3 7,3 3,0 5,-1 7,-2 1,-2 2,-4 3,-7zm9 -5c0,-7 2,-12 6,-15 3,-3 7,-4 11,-4 5,0 9,1 13,5 3,3 4,7 4,13 0,5 0,9 -2,12 -1,2 -3,4 -6,6 -3,1 -6,2 -9,2 -5,0 -9,-2 -12,-5 -4,-3 -5,-8 -5,-14zm6 0c0,5 1,8 3,10 2,3 5,4 8,4 3,0 6,-1 8,-4 2,-2 3,-6 3,-10 0,-5 -1,-8 -3,-11 -2,-2 -5,-3 -8,-3 -3,0 -6,1 -8,3 -2,3 -3,6 -3,11zm36 18l0 -37 5 0 0 6c2,-2 3,-4 5,-5 2,-1 4,-1 7,-1 2,0 5,0 6,1 2,1 3,3 4,5 3,-4 7,-6 11,-6 4,0 7,1 9,3 2,2 3,5 3,9l0 25 -6 0 0 -23c0,-2 -1,-4 -1,-5 0,-1 -1,-2 -2,-3 -1,-1 -3,-1 -4,-1 -3,0 -5,1 -6,3 -2,1 -3,4 -3,8l0 21 -6 0 0 -24c0,-2 -1,-5 -2,-6 -1,-1 -3,-2 -5,-2 -2,0 -3,0 -5,1 -1,1 -2,3 -3,4 -1,2 -1,5 -1,8l0 19 -6 0zm59 0l0 -37 6 0 0 6c1,-2 2,-4 4,-5 2,-1 4,-1 7,-1 3,0 5,0 7,1 1,1 3,3 3,5 3,-4 7,-6 12,-6 3,0 6,1 8,3 2,2 3,5 3,9l0 25 -6 0 0 -23c0,-2 0,-4 -1,-5 0,-1 -1,-2 -2,-3 -1,-1 -2,-1 -4,-1 -2,0 -4,1 -6,3 -2,1 -3,4 -3,8l0 21 -6 0 0 -24c0,-2 -1,-5 -2,-6 -1,-1 -2,-2 -5,-2 -1,0 -3,0 -4,1 -2,1 -3,3 -4,4 0,2 -1,5 -1,8l0 19 -6 0zm85 -12l6 1c-1,4 -3,7 -6,9 -2,2 -6,3 -10,3 -6,0 -10,-2 -13,-5 -3,-3 -5,-8 -5,-14 0,-6 2,-11 5,-14 3,-4 7,-5 13,-5 4,0 8,1 12,5 3,3 4,8 4,14 0,0 0,1 0,1l-27 0c0,4 1,8 3,10 2,2 5,3 8,3 2,0 4,-1 6,-2 1,-1 3,-3 4,-6zm-21 -10l21 0c-1,-3 -1,-5 -3,-7 -2,-2 -4,-3 -7,-3 -3,0 -6,1 -8,3 -2,2 -3,4 -3,7zm35 22l0 -37 6 0 0 6c1,-3 2,-4 4,-5 1,-1 2,-1 4,-1 2,0 4,0 6,2l-2 5c-2,-1 -3,-1 -5,-1 -1,0 -2,0 -3,1 -2,1 -2,2 -3,4 0,2 -1,4 -1,7l0 19 -6 0zm48 -13l6 1c-1,4 -2,7 -5,10 -3,2 -6,3 -10,3 -5,0 -9,-2 -13,-5 -3,-3 -4,-8 -4,-14 0,-4 1,-7 2,-10 1,-3 3,-6 6,-7 3,-2 5,-2 9,-2 4,0 7,1 9,3 3,2 5,5 5,8l-6 1c0,-2 -1,-4 -3,-5 -1,-2 -3,-2 -5,-2 -3,0 -6,1 -8,3 -2,2 -3,6 -3,11 0,5 1,8 3,11 2,2 4,3 8,3 2,0 4,-1 6,-2 1,-2 2,-4 3,-7zm37 1l6 1c-1,4 -3,7 -6,9 -2,2 -6,3 -10,3 -6,0 -10,-2 -13,-5 -3,-3 -5,-8 -5,-14 0,-6 2,-11 5,-14 3,-4 7,-5 12,-5 5,0 9,1 13,5 3,3 4,8 4,14 0,0 0,1 0,1l-27 0c0,4 1,8 3,10 2,2 5,3 8,3 2,0 4,-1 6,-2 1,-1 3,-3 4,-6zm-21 -10l21 0c-1,-3 -1,-5 -3,-7 -2,-2 -4,-3 -8,-3 -2,0 -5,1 -7,3 -2,2 -3,4 -3,7z"/>
  </g>
 </g>
</svg>
